<svg xmlns="http://www.w3.org/2000/svg" viewBox="0 0 800 400" fill="currentColor"><g transform="translate(0,400) scale(.1,-.1)"><path d="M3961 3963c-36-36-83-169-127-353-19-80-57-242-85-360-62-261-135-516-229-804-65-199-73-216-94-216-57 0-211-34-324-72-181-60-229-113-163-179 37-36 78-39 91-5 8 21 23 26 175 56 91 17 169 29 172 26 3-3-42-135-101-293-157-420-174-498-115-547 64-54 126-18 140 80 13 95 82 332 162 559l75 210 58 6c33 4 113 7 180 8 104 1 123 4 137 19 24 26 21 59-5 76-25 15-219 56-267 56-42 0-42 6-9 90 121 310 226 673 322 1120 52 236 97 414 109 427 3 2 15-1 27-7 17-9 26-8 46 5 31 20 31 45-1 79-50 54-130 63-174 19zM576 2657c-34-34-51-97-96-357-83-479-197-1004-250-1151-165-458-270-1049-200-1119 26-26 81-26 104-1 12 13 54 188 131 547 62 291 119 554 125 584 44 201 283 570 545 838 239 246 389 340 555 350 113 6 132-4 156-86 22-74 25-317 5-417-65-330-272-601-545-714-88-36-270-43-314-12-83 58-79 170 12 350 39 76 24 123-35 108-28-8-118-120-169-210-87-154-21-353 143-428 59-26 225-26 329 0 194 50 424 223 534 402l39 63 6-165c8-221 30-279 133-335 63-35 178-39 265-10 72 25 208 117 308 210l81 76 21-69c59-196 206-261 384-173 99 49 132 80 123 116-10 39-38 49-99 36-64-13-159-16-175-6-36 22-56 91-60 211l-4 121 55 84c138 214 205 412 210 624 2 118-11 149-73 167-109 33-200-77-280-341-18-58-34-112-37-120-3-11-11-8-30 15-90 108-180 187-251 222-142 71-314 49-384-50l-23-32-12 140c-23 288-105 379-323 361-201-17-350-104-585-340-143-145-243-258-334-380-51-69-59-70-41-6 22 81 90 470 110 626 11 93 28 190 37 216 14 39 14 49 4 62-20 24-68 20-95-7zm2179-669c-20-83-55-182-62-175-5 6 7 55 43 176 31 101 44 100 19-1zm-630-59c22-6 110-58 196-115l156-104-13-67c-7-38-16-106-20-152-7-82-8-84-56-140-194-221-441-355-527-283-75 61-31 571 66 767 51 103 93 122 198 94zM6960 2464c-149-17-197-33-249-84-37-38-41-84-10-124 35-45 95-27 87 26-4 33 44 47 162 47 210 1 323-127 291-331-29-182-257-481-561-738-63-54-123-106-133-118-26-28-25-79 2-105 21-21 28-22 214-19 106 2 269-2 362-8 509-34 557-32 680 30 180 90 238 167 159 208-18 9-40 5-121-22-156-53-208-58-448-47-185 9-510 1-577-13-26-6-29-9 100 106 280 250 454 521 478 743 27 260-183 476-436 449zM4171 2441c-32-32-38-73-97-591-81-729-82-781-2-830 108-66 238 20 468 310 46 58 87 109 91 113 4 5 5-29 2-75-7-133 37-193 145-193 104 0 199 78 364 297 389 516 594 968 439 968-40 0-78-51-159-209-79-155-109-206-235-395-156-236-347-476-378-476-5 0-8 64-7 144 3 158-6 189-64 210-44 16-78-14-242-209-155-185-298-335-317-335-13 0-11 122 6 295 36 367 56 601 64 748 5 95 13 163 19 169 29 29-3 78-51 78-15 0-36-9-46-19zM6062 2398c-24-24-10-61 84-225 126-217 145-264 151-378 15-265-172-586-419-716-146-77-300-58-355 43-31 57-25 314 10 443 86 313 266 504 421 445 57-21 88-80 42-80-34 0-50-23-36-51 16-30 99-23 135 11 117 110-28 293-231 294-284 0-559-473-541-932 6-165 21-207 101-288 221-221 610-92 861 286 126 188 165 300 172 490 8 204-40 337-185 511-125 149-174 183-210 147z"/></g></svg>
