<svg xmlns="http://www.w3.org/2000/svg" width="75.995" height="30.435" viewBox="0 0 75.995 30.435"><defs><clipPath id="a"><path fill="none" d="M0 0h76v-30.435H0Z"/></clipPath></defs><g clip-path="url(#a)" transform="translate(0 30.435)"><path fill="#0d0a09" d="M75.995-1.312V-3.64a1.31 1.31 0 0 0-1.309-1.309h-9.722a.88.88 0 0 1-.883-.882v-23.3a1.31 1.31 0 0 0-1.309-1.308h-3.1a1.31 1.31 0 0 0-1.308 1.308v27.819a1.31 1.31 0 0 0 1.308 1.309h15.014a1.31 1.31 0 0 0 1.309-1.309M16.425-1.312v-2.967a1.31 1.31 0 0 0-1.309-1.309h-3.172a1.31 1.31 0 0 0-1.309 1.309v2.967a1.31 1.31 0 0 0 1.309 1.309h3.172a1.31 1.31 0 0 0 1.309-1.309"/><path fill="#0d0a09" d="M15.357-26.898v.006zM27.162-.886a.9.9 0 0 0-.049-.286L16.992-29.325a1.77 1.77 0 0 0-1.641-1.11h-3.539a1.77 1.77 0 0 0-1.641 1.11L.049-1.172A.9.9 0 0 0 0-.886.886.886 0 0 0 .883 0h3.591a1.77 1.77 0 0 0 1.667-1.172s3.582-11.026 4.906-14.991c.874-2.616 2.234-7.177 2.374-7.909a.16.16 0 0 1 .158-.145.16.16 0 0 1 .159.145c.14.732 1.5 5.293 2.374 7.909 1.327 3.965 4.909 14.991 4.909 14.991A1.77 1.77 0 0 0 22.689.002h3.591a.886.886 0 0 0 .882-.886M37.674-25.658a.88.88 0 0 0-.882.883v5.806a.88.88 0 0 0 .882.882h3.6c2.441 0 4.032-.427 4.032-3.786-.001-2.518-.912-3.785-4.032-3.785zm0 12.258a.88.88 0 0 0-.882.882v6.854a.88.88 0 0 0 .882.882h3.976c2.3 0 4.75-.508 4.75-4.176 0-2.969-.972-4.439-4.75-4.442zM42.216 0h-9.842a1.31 1.31 0 0 1-1.3-1.313v-27.814a1.31 1.31 0 0 1 1.3-1.309h9.842c6.543 0 9.008 3.317 9.167 7.608.142 3.791-1.049 5.6-3.164 6.43a.16.16 0 0 0-.1.147.15.15 0 0 0 .1.146h.007c3.35.891 4.652 4.395 4.527 7.853-.194 5.426-3.785 8.237-10.53 8.241"/></g></svg>