<svg xmlns="http://www.w3.org/2000/svg" xmlns:xlink="http://www.w3.org/1999/xlink" width="75.995" height="30.435" viewBox="0 0 75.995 30.435"><defs><clipPath id="a"><path d="M0,0H76V-30.435H0Z" fill="none"/></clipPath></defs><g transform="translate(0 30.435)" clip-path="url(#a)"><g transform="translate(75.995 -1.312)"><path d="M0,0V-2.328A1.309,1.309,0,0,0-1.309-3.637h-9.722a.882.882,0,0,1-.883-.882v-23.3a1.309,1.309,0,0,0-1.309-1.308h-3.1a1.308,1.308,0,0,0-1.308,1.308V0a1.309,1.309,0,0,0,1.308,1.309H-1.309A1.309,1.309,0,0,0,0,0" fill="#0d0a09"/></g><g transform="translate(16.425 -1.312)"><path d="M0,0V-2.967A1.309,1.309,0,0,0-1.309-4.276H-4.481A1.309,1.309,0,0,0-5.79-2.967V0A1.309,1.309,0,0,0-4.481,1.309h3.172A1.309,1.309,0,0,0,0,0" fill="#0d0a09"/></g><g transform="translate(15.357 -26.898)"><path d="M0,0,0,.006V0ZM11.805,26.012a.872.872,0,0,0-.049-.286L1.635-2.427A1.769,1.769,0,0,0-.006-3.537H-3.545a1.768,1.768,0,0,0-1.641,1.11L-15.308,25.726a.872.872,0,0,0-.049.286.886.886,0,0,0,.883.886h3.591a1.772,1.772,0,0,0,1.667-1.172S-5.634,14.7-4.31,10.735c.874-2.616,2.234-7.177,2.374-7.909h0a.16.16,0,0,1,.158-.145h0a.161.161,0,0,1,.159.145h0c.14.732,1.5,5.293,2.374,7.909C2.082,14.7,5.664,25.726,5.664,25.726A1.773,1.773,0,0,0,7.332,26.9h3.591a.886.886,0,0,0,.882-.886" fill="#0d0a09"/></g><g transform="translate(37.674 -25.658)"><path d="M0,0A.882.882,0,0,0-.882.883V6.689A.882.882,0,0,0,0,7.571H3.6c2.441,0,4.032-.427,4.032-3.786C7.631,1.267,6.72,0,3.6,0H0M0,12.258H0a.882.882,0,0,0-.882.882v6.854A.882.882,0,0,0,0,20.876H3.976c2.3,0,4.75-.508,4.75-4.176,0-2.969-.972-4.439-4.75-4.442H0m4.542,13.4H-5.3A1.309,1.309,0,0,1-6.6,24.345V-3.469A1.309,1.309,0,0,1-5.3-4.778H4.542c6.543,0,9.008,3.317,9.167,7.608.142,3.791-1.049,5.6-3.164,6.43h0a.158.158,0,0,0-.1.147.153.153,0,0,0,.1.146l.007,0c3.35.891,4.652,4.395,4.527,7.853-.194,5.426-3.785,8.237-10.53,8.241v0" fill="#0d0a09"/></g></g></svg>