<svg xmlns="http://www.w3.org/2000/svg" width="1133.858" height="334.842"><defs><clipPath id="az"><path d="M.06 841.98h595.32V.06H.06z"/></clipPath><clipPath id="ay"><path d="M0 841h595V0H0z"/></clipPath><clipPath id="ax"><path d="M.06 841.98h595.32V.06H.06z"/></clipPath><clipPath id="aw"><path d="M0 841h595V0H0z"/></clipPath><clipPath id="av"><path d="M.06 841.98h595.32V.06H.06z"/></clipPath><clipPath id="au"><path d="M0 841h595V0H0z"/></clipPath><clipPath id="at"><path d="M.06 841.98h595.32V.06H.06z"/></clipPath><clipPath id="as"><path d="M0 841h595V0H0z"/></clipPath><clipPath id="ar"><path d="M.06 841.98h595.32V.06H.06z"/></clipPath><clipPath id="aq"><path d="M0 841h595V0H0z"/></clipPath><clipPath id="ap"><path d="M.06 841.98h595.32V.06H.06z"/></clipPath><clipPath id="ao"><path d="M0 841h595V0H0z"/></clipPath><clipPath id="an"><path d="M.06 841.98h595.32V.06H.06z"/></clipPath><clipPath id="am"><path d="M0 841h595V0H0z"/></clipPath><clipPath id="al"><path d="M.06 841.98h595.32V.06H.06z"/></clipPath><clipPath id="ak"><path d="M0 841h595V0H0z"/></clipPath><clipPath id="aj"><path d="M.06 841.98h595.32V.06H.06z"/></clipPath><clipPath id="ai"><path d="M0 841h595V0H0z"/></clipPath><clipPath id="ah"><path d="M.06 841.98h595.32V.06H.06z"/></clipPath><clipPath id="ag"><path d="M0 841h595V0H0z"/></clipPath><clipPath id="af"><path d="M.06 841.98h595.32V.06H.06z"/></clipPath><clipPath id="ae"><path d="M0 841h595V0H0z"/></clipPath><clipPath id="ad"><path d="M.06 841.98h595.32V.06H.06z"/></clipPath><clipPath id="ac"><path d="M0 841h595V0H0z"/></clipPath><clipPath id="ab"><path d="M.06 841.98h595.32V.06H.06z"/></clipPath><clipPath id="aa"><path d="M0 841h595V0H0z"/></clipPath><clipPath id="Z"><path d="M.06 841.98h595.32V.06H.06z"/></clipPath><clipPath id="Y"><path d="M0 841h595V0H0z"/></clipPath><clipPath id="X"><path d="M.06 841.98h595.32V.06H.06z"/></clipPath><clipPath id="W"><path d="M0 841h595V0H0z"/></clipPath><clipPath id="V"><path d="M.06 841.98h595.32V.06H.06z"/></clipPath><clipPath id="U"><path d="M0 841h595V0H0z"/></clipPath><clipPath id="T"><path d="M.06 841.98h595.32V.06H.06z"/></clipPath><clipPath id="S"><path d="M0 841h595V0H0z"/></clipPath><clipPath id="R"><path d="M.06 841.98h595.32V.06H.06z"/></clipPath><clipPath id="Q"><path d="M0 841h595V0H0z"/></clipPath><clipPath id="P"><path d="M.06 841.98h595.32V.06H.06z"/></clipPath><clipPath id="O"><path d="M0 841h595V0H0z"/></clipPath><clipPath id="N"><path d="M.06 841.98h595.32V.06H.06z"/></clipPath><clipPath id="M"><path d="M0 841h595V0H0z"/></clipPath><clipPath id="L"><path d="M.06 841.98h595.32V.06H.06z"/></clipPath><clipPath id="K"><path d="M0 841h595V0H0z"/></clipPath><clipPath id="J"><path d="M.06 841.98h595.32V.06H.06z"/></clipPath><clipPath id="I"><path d="M0 841h595V0H0z"/></clipPath><clipPath id="H"><path d="M.06 841.98h595.32V.06H.06z"/></clipPath><clipPath id="G"><path d="M0 841h595V0H0z"/></clipPath><clipPath id="F"><path d="M.06 841.98h595.32V.06H.06z"/></clipPath><clipPath id="E"><path d="M0 841h595V0H0z"/></clipPath><clipPath id="D"><path d="M.06 841.98h595.32V.06H.06z"/></clipPath><clipPath id="C"><path d="M0 841h595V0H0z"/></clipPath><clipPath id="B"><path d="M.06 841.98h595.32V.06H.06z"/></clipPath><clipPath id="A"><path d="M0 841h595V0H0z"/></clipPath><clipPath id="z"><path d="M.06 841.98h595.32V.06H.06z"/></clipPath><clipPath id="y"><path d="M0 841h595V0H0z"/></clipPath><clipPath id="x"><path d="M.06 841.98h595.32V.06H.06z"/></clipPath><clipPath id="w"><path d="M0 841h595V0H0z"/></clipPath><clipPath id="v"><path d="M.06 841.98h595.32V.06H.06z"/></clipPath><clipPath id="u"><path d="M0 841h595V0H0z"/></clipPath><clipPath id="t"><path d="M.06 841.98h595.32V.06H.06z"/></clipPath><clipPath id="s"><path d="M0 841h595V0H0z"/></clipPath><clipPath id="r"><path d="M.06 841.98h595.32V.06H.06z"/></clipPath><clipPath id="q"><path d="M0 841h595V0H0z"/></clipPath><clipPath id="p"><path d="M.06 841.98h595.32V.06H.06z"/></clipPath><clipPath id="o"><path d="M0 841h595V0H0z"/></clipPath><clipPath id="n"><path d="M.06 841.98h595.32V.06H.06z"/></clipPath><clipPath id="m"><path d="M0 841h595V0H0z"/></clipPath><clipPath id="l"><path d="M.06 841.98h595.32V.06H.06z"/></clipPath><clipPath id="k"><path d="M0 841h595V0H0z"/></clipPath><clipPath id="j"><path d="M.06 841.98h595.32V.06H.06z"/></clipPath><clipPath id="i"><path d="M0 841h595V0H0z"/></clipPath><clipPath id="h"><path d="M.06 841.98h595.32V.06H.06z"/></clipPath><clipPath id="g"><path d="M0 841h595V0H0z"/></clipPath><clipPath id="f"><path d="M.06 841.98h595.32V.06H.06z"/></clipPath><clipPath id="e"><path d="M0 841h595V0H0z"/></clipPath><clipPath id="d"><path d="M.06 841.98h595.32V.06H.06z"/></clipPath><clipPath id="c"><path d="M0 841h595V0H0z"/></clipPath><clipPath id="b"><path d="M.06 841.98h595.32V.06H.06z"/></clipPath><clipPath id="a"><path d="M0 841h595V0H0z"/></clipPath></defs><g style="fill:#64a104;fill-opacity:1"><path d="M0 0h13.464c1.857 0 3.887-1.488 3.887-4.908 0-4.408-3.367-4.463-3.367-4.463s3.267-.613 3.267-4.033v-6.085h-4.687l-.007 5.776c0 1.727-.916 2.475-2.176 2.47l-5.694-.01v-8.236H0zm4.68-3.364v-4.582h5.949c1.205 0 2.027.787 2.047 2.327.017 1.403-.788 2.255-2.047 2.255z" style="fill:#64a104;fill-opacity:1;fill-rule:evenodd;stroke:none" transform="matrix(8.5581 0 0 -8.5581 386.888 35.413)"/></g><g style="fill:#64a104;fill-opacity:1"><path d="M0 0h13.463c1.857 0 3.887-1.488 3.887-4.908 0-4.408-3.367-4.463-3.367-4.463s3.267-.613 3.267-4.033v-6.085h-4.687l-.006 5.776c0 1.727-.916 2.475-2.176 2.47l-5.695-.01v-8.236H0zm4.679-3.364v-4.582h5.949c1.206 0 2.028.787 2.047 2.327.017 1.403-.787 2.255-2.047 2.255z" style="fill:#64a104;fill-opacity:1;fill-rule:evenodd;stroke:none" transform="matrix(8.5581 0 0 -8.5581 949.942 35.413)"/></g><g style="fill:#64a104;fill-opacity:1"><path d="M0 0h15.337v-3.322H4.693v-4.582h10.644v-3.349H4.693v-4.83h10.644v-3.406H0z" style="fill:#64a104;fill-opacity:1;fill-rule:nonzero;stroke:none" transform="matrix(8.5581 0 0 -8.5581 786.346 35.413)"/></g><g style="fill:#64a104;fill-opacity:1"><path d="m0 0-7.517-19.484h4.744l1.818 5.111h7.614l1.798-5.111 4.995.005L6.55.005zm.129-11.238L2.91-3.531l2.684-7.707z" style="fill:#64a104;fill-opacity:1;fill-rule:evenodd;stroke:none" transform="matrix(8.5581 0 0 -8.5581 256.377 35.456)"/></g><g style="fill:#64a104;fill-opacity:1"><path d="M0 0h-4.522l.015 14.902h-.035L-8.918.004l-4.25-.001-4.135 14.899h-.024L-17.339.003h-4.522v19.402h7.278l3.679-12.897h.047l3.85 12.901h7.003z" style="fill:#64a104;fill-opacity:1;fill-rule:nonzero;stroke:none" transform="matrix(8.5581 0 0 -8.5581 754.099 202.201)"/></g><g style="fill:#64a104;fill-opacity:1"><path d="m0 0 14.088-.007c1.973 0 3.62-2.322 3.62-4.754 0-4.159-2.866-4.582-2.866-4.582s2.866-.458 2.866-4.899c0-3.63-2.619-5.237-4.302-5.237L0-19.484zm4.826-3.319v-4.583l6.236.004c1.206 0 2.016.423 2.016 2.362 0 1.727-.756 2.22-2.016 2.22zm0-7.931v-4.829l6.236.004c1.206 0 2.016.423 2.016 2.361 0 1.728-.756 2.468-2.016 2.468z" style="fill:#64a104;fill-opacity:1;fill-rule:evenodd;stroke:none" transform="matrix(8.5581 0 0 -8.5581 35.878 35.456)"/></g><g style="fill:#000"><path d="M0 0c0 1.601-.92 2.441-2.491 2.441h-1.498v-4.874h1.279C-1.103-2.433 0-1.695 0 0m-.833 0c0-1.293-.701-1.841-1.958-1.841h-.402v3.69h.621c1.14 0 1.739-.738 1.739-1.849" style="fill:#000;fill-opacity:1;fill-rule:evenodd;stroke:none" transform="matrix(8.5581 0 0 -8.5581 69.571 264.419)"/></g><g style="fill:#000"><path d="M0 0v.22c0 1.029-.438 1.87-1.527 1.87-1.016 0-1.651-.884-1.651-1.885 0-1.14.57-1.922 1.768-1.922.395 0 .855.059 1.22.197l-.044.57c-.292-.161-.731-.256-1.059-.256-.709 0-1.133.534-1.133 1.206zm-.701.453h-1.732c0 .467.293 1.132.913 1.132S-.701.972-.701.453" style="fill:#000;fill-opacity:1;fill-rule:evenodd;stroke:none" transform="matrix(8.5581 0 0 -8.5581 104.6 271.23)"/></g><g style="fill:#000"><path d="M0 0a8 8 0 0 0-.036.841v2.813h-.731V1.666c0-.577-.204-1.169-.884-1.169-.628 0-.723.497-.723 1.009v2.148h-.731V1.352c0-.84.314-1.432 1.22-1.432.526 0 .928.241 1.177.701L-.687 0z" style="fill:#000;fill-opacity:1;fill-rule:nonzero;stroke:none" transform="matrix(8.5581 0 0 -8.5581 141.365 285.24)"/></g><g style="fill:#000"><path d="m0 0-.037.541A1 1 0 0 0-.439.453c-.372 0-.453.27-.453.585v2.046h.819v.526h-.819v1.03l-.737-.242V3.61h-.673v-.526h.673V1.125c0-.708.146-1.249.927-1.249.227 0 .483.044.702.124" style="fill:#000;fill-opacity:1;fill-rule:nonzero;stroke:none" transform="matrix(8.5581 0 0 -8.5581 169.693 284.864)"/></g><g style="fill:#000"><path d="M0 0c0 1.235-1.797 1.045-1.797 1.681 0 .409.394.497.716.497.285 0 .621-.066.884-.175l.043.533a3.2 3.2 0 0 1-.986.161c-.635 0-1.38-.286-1.38-1.038C-2.52.512-.723.782-.723-.043c0-.38-.344-.548-.738-.548-.344 0-.709.08-1.016.241l-.043-.584a3.4 3.4 0 0 1 1.117-.176C-.723-1.11 0-.767 0 0" style="fill:#000;fill-opacity:1;fill-rule:nonzero;stroke:none" transform="matrix(8.5581 0 0 -8.5581 199.688 276.426)"/></g><g style="fill:#000"><path d="m0 0-.037.577A2 2 0 0 0-.833.409c-.782 0-1.206.636-1.206 1.367 0 .767.431 1.336 1.235 1.336.263 0 .526-.08.76-.189L0 3.507a3 3 0 0 1-.957.154c-1.133 0-1.871-.76-1.871-1.885 0-1.118.68-1.922 1.834-1.922.343 0 .672.037.994.146" style="fill:#000;fill-opacity:1;fill-rule:nonzero;stroke:none" transform="matrix(8.5581 0 0 -8.5581 232.14 284.676)"/></g><g style="fill:#000"><path d="M0 0v2.309c0 .833-.344 1.418-1.22 1.418-.512 0-.907-.227-1.133-.68v2.221h-.731V0h.731v1.995c0 .57.219 1.162.891 1.162.629 0 .723-.483.723-1.001V0z" style="fill:#000;fill-opacity:1;fill-rule:nonzero;stroke:none" transform="matrix(8.5581 0 0 -8.5581 268.53 285.24)"/></g><path d="M-383.851 414.452h6.139v44.244h-6.14z" style="fill:#000;fill-opacity:1;fill-rule:nonzero;stroke:none" transform="translate(671.978 -182.167)scale(1.019)"/><g style="fill:#000"><path d="M0 0a7 7 0 0 0-.044.811v1.527c0 .979-.541 1.389-1.483 1.389-.366 0-.848-.103-1.184-.241l.044-.563c.329.205.701.292 1.074.292.57 0 .833-.292.833-.825v-.154c-.11.008-.263.008-.358.008-1.074 0-1.98-.33-1.98-1.279 0-.716.555-1.045 1.213-1.045.46 0 .928.249 1.147.658L-.716 0zm-.76 1.594C-.76.98-.994.431-1.695.431c-.358 0-.68.183-.68.578 0 .73.906.781 1.498.781h.117z" style="fill:#000;fill-opacity:1;fill-rule:evenodd;stroke:none" transform="matrix(8.5581 0 0 -8.5581 323.593 285.24)"/></g><g style="fill:#000"><path d="M0 0v2.309c0 .84-.321 1.418-1.227 1.418-.526 0-.936-.241-1.184-.702l-.022.629h-.687c.03-.278.037-.563.037-.841V0h.73v1.988c0 .577.213 1.169.892 1.169.628 0 .723-.49.723-1.001V0z" style="fill:#000;fill-opacity:1;fill-rule:nonzero;stroke:none" transform="matrix(8.5581 0 0 -8.5581 361.847 285.24)"/></g><g style="fill:#000"><path d="M0 0c-.022.344-.037.695-.037 1.097v4.171h-.73V3.047c-.183.431-.65.68-1.103.68-1.103 0-1.513-.914-1.513-1.885 0-.965.41-1.922 1.513-1.922.504 0 .92.226 1.147.687L-.679 0zm-.745 1.834c0-.577-.219-1.351-.928-1.351-.745 0-.92.752-.92 1.351 0 .614.16 1.33.913 1.33.708 0 .935-.745.935-1.33" style="fill:#000;fill-opacity:1;fill-rule:evenodd;stroke:none" transform="matrix(8.5581 0 0 -8.5581 401.232 285.24)"/></g><g style="fill:#000"><path d="M0 0c0 1.235-1.798 1.045-1.798 1.681 0 .409.395.497.716.497.285 0 .621-.066.884-.175l.044.533a3.2 3.2 0 0 1-.986.161c-.636 0-1.381-.286-1.381-1.038C-2.521.512-.723.782-.723-.043c0-.38-.344-.548-.739-.548-.343 0-.708.08-1.015.241l-.044-.584a3.4 3.4 0 0 1 1.118-.176C-.723-1.11 0-.767 0 0" style="fill:#000;fill-opacity:1;fill-rule:nonzero;stroke:none" transform="matrix(8.5581 0 0 -8.5581 432.691 276.426)"/></g><g style="fill:#000"><path d="M0 0v3.449h-.702v-.607c-.233.461-.643.68-1.147.68-1.081 0-1.497-.914-1.497-1.885 0-.914.416-1.842 1.483-1.842.46 0 .898.241 1.132.636V0c0-.774-.343-1.308-1.191-1.308-.38 0-.767.095-1.088.263l-.044-.62a4.2 4.2 0 0 1 1.242-.198C-.607-1.863 0-1.184 0 0m-.709 1.629c0-.555-.226-1.271-.935-1.271-.738 0-.913.701-.913 1.271 0 .614.168 1.33.92 1.33.709 0 .928-.745.928-1.33" style="fill:#000;fill-opacity:1;fill-rule:evenodd;stroke:none" transform="matrix(8.5581 0 0 -8.5581 490.886 283.486)"/></g><g style="fill:#000"><path d="M0 0c-.102.03-.204.03-.307.03-.467 0-.84-.388-.993-.775l-.022.702h-.687c.029-.278.037-.563.037-.841v-2.813h.73v1.739c0 .57.19 1.308.906 1.308a.8.8 0 0 0 .3-.044z" style="fill:#000;fill-opacity:1;fill-rule:nonzero;stroke:none" transform="matrix(8.5581 0 0 -8.5581 520.086 253.601)"/></g><path d="M-125.208 421.692h5.156v-5.955h-5.156zm-10.49 0h5.157v-5.955h-5.157zm22.953 21.534c0-9.575-5.4-15.832-15.1-15.832-9.205 0-15.093 6.51-15.093 15.832 0 9.33 5.275 16.142 15.092 16.142 9.7 0 15.101-6.811 15.101-16.142m-6.635 0c0 5.652-2.326 11.48-8.466 11.48-6.13 0-8.465-5.954-8.465-11.48 0-5.4 2.335-11.22 8.465-11.22 6.325 0 8.466 5.76 8.466 11.22" style="fill:#000;fill-opacity:1;fill-rule:evenodd;stroke:none" transform="translate(671.978 -182.167)scale(1.019)"/><g style="fill:#000"><path d="M0 0c0 1.104-1.366 1.14-1.366 1.783 0 .578.643.599 1.074.614v.277c0 .987-.578 1.666-1.593 1.666-.979 0-1.6-.636-1.6-1.607v-3.734h.731v3.734c0 .562.233 1.074.876 1.074.658 0 .884-.504.884-1.067-.555-.044-1.118-.307-1.118-.95C-2.112.76-.76.833-.76.008c0-.388-.249-.57-.614-.57-.255 0-.496.073-.723.19l-.044-.541c.314-.117.607-.168.943-.168C-.533-1.081 0-.709 0 0" style="fill:#000;fill-opacity:1;fill-rule:nonzero;stroke:none" transform="matrix(8.5581 0 0 -8.5581 597.417 276.674)"/></g><g style="fill:#000"><path d="m0 0-.037.541A1 1 0 0 0-.439.453c-.372 0-.453.27-.453.585v2.046h.819v.526h-.819v1.03l-.738-.242V3.61h-.672v-.526h.672V1.125c0-.708.146-1.249.928-1.249.227 0 .482.044.702.124" style="fill:#000;fill-opacity:1;fill-rule:nonzero;stroke:none" transform="matrix(8.5581 0 0 -8.5581 623.75 284.864)"/></g><g style="fill:#000"><path d="M0 0v.22c0 1.029-.439 1.87-1.527 1.87-1.016 0-1.651-.884-1.651-1.885 0-1.14.57-1.922 1.768-1.922.394 0 .854.059 1.22.197l-.044.57c-.292-.161-.731-.256-1.06-.256-.708 0-1.132.534-1.132 1.206zm-.702.453h-1.731c0 .467.292 1.132.913 1.132S-.702.972-.702.453" style="fill:#000;fill-opacity:1;fill-rule:evenodd;stroke:none" transform="matrix(8.5581 0 0 -8.5581 658.377 271.23)"/></g><g style="fill:#000"><path d="m0 0-2.39 2.594 2.199 2.28h-.964L-3.12 2.719v2.155h-.797V0h.797v2.382L-1.024 0z" style="fill:#000;fill-opacity:1;fill-rule:nonzero;stroke:none" transform="matrix(8.5581 0 0 -8.5581 724.205 285.24)"/></g><g style="fill:#000"><path d="M0 0c-.102.03-.204.03-.306.03-.468 0-.841-.388-.994-.775l-.022.702h-.687c.03-.278.037-.563.037-.841v-2.813h.731v1.739c0 .57.189 1.308.905 1.308a.8.8 0 0 0 .3-.044z" style="fill:#000;fill-opacity:1;fill-rule:nonzero;stroke:none" transform="matrix(8.5581 0 0 -8.5581 748.091 253.601)"/></g><g style="fill:#000"><path d="M0 0a7 7 0 0 0-.044.811v1.527c0 .979-.541 1.389-1.483 1.389-.365 0-.848-.103-1.184-.241l.044-.563c.329.205.702.292 1.074.292.57 0 .833-.292.833-.825v-.154c-.11.008-.263.008-.358.008-1.074 0-1.98-.33-1.98-1.279 0-.716.555-1.045 1.213-1.045.46 0 .928.249 1.147.658L-.716 0zm-.76 1.594C-.76.98-.994.431-1.695.431c-.358 0-.68.183-.68.578 0 .73.906.781 1.498.781h.117z" style="fill:#000;fill-opacity:1;fill-rule:evenodd;stroke:none" transform="matrix(8.5581 0 0 -8.5581 780.406 285.24)"/></g><g style="fill:#000"><path d="M0 0v2.309c0 .84-.322 1.418-1.228 1.418-.525 0-.935-.241-1.183-.702l-.022.629h-.687c.03-.278.037-.563.037-.841V0h.731v1.988c0 .577.211 1.169.891 1.169.628 0 .723-.49.723-1.001V0z" style="fill:#000;fill-opacity:1;fill-rule:nonzero;stroke:none" transform="matrix(8.5581 0 0 -8.5581 818.661 285.24)"/></g><g style="fill:#000"><path d="m0 0-1.768 2.032 1.6 1.622h-.892l-1.454-1.506v3.12h-.731V0h.731v1.885L-.921 0z" style="fill:#000;fill-opacity:1;fill-rule:nonzero;stroke:none" transform="matrix(8.5581 0 0 -8.5581 858.739 285.24)"/></g><g style="fill:#000"><path d="M0 0v.22c0 1.029-.439 1.87-1.527 1.87-1.015 0-1.651-.884-1.651-1.885 0-1.14.57-1.922 1.768-1.922.395 0 .855.059 1.22.197l-.043.57c-.293-.161-.731-.256-1.06-.256-.708 0-1.133.534-1.133 1.206zm-.701.453h-1.732c0 .467.292 1.132.913 1.132.622 0 .819-.613.819-1.132" style="fill:#000;fill-opacity:1;fill-rule:evenodd;stroke:none" transform="matrix(8.5581 0 0 -8.5581 891.739 271.23)"/></g><g style="fill:#000"><path d="M0 0v2.309c0 .84-.322 1.418-1.227 1.418-.527 0-.935-.241-1.184-.702l-.022.629h-.687c.03-.278.036-.563.036-.841V0h.731v1.988c0 .577.212 1.169.891 1.169.629 0 .724-.49.724-1.001V0z" style="fill:#000;fill-opacity:1;fill-rule:nonzero;stroke:none" transform="matrix(8.5581 0 0 -8.5581 928.444 285.24)"/></g><g style="fill:#000"><path d="m0 0-1.768 2.032 1.6 1.622h-.891l-1.454-1.506v3.12h-.73V0h.73v1.885L-.92 0z" style="fill:#000;fill-opacity:1;fill-rule:nonzero;stroke:none" transform="matrix(8.5581 0 0 -8.5581 968.513 285.24)"/></g><g style="fill:#000"><path d="M0 0a7 7 0 0 0-.044.811v1.527c0 .979-.54 1.389-1.483 1.389-.365 0-.847-.103-1.183-.241l.044-.563c.328.205.701.292 1.073.292.571 0 .833-.292.833-.825v-.154c-.109.008-.262.008-.357.008-1.074 0-1.981-.33-1.981-1.279 0-.716.556-1.045 1.213-1.045.46 0 .928.249 1.147.658L-.716 0zm-.76 1.594C-.76.98-.993.431-1.695.431c-.357 0-.679.183-.679.578 0 .73.906.781 1.498.781h.116z" style="fill:#000;fill-opacity:1;fill-rule:evenodd;stroke:none" transform="matrix(8.5581 0 0 -8.5581 1001.017 285.24)"/></g><g style="fill:#000"><path d="M0 0c0 1.235-1.797 1.045-1.797 1.681 0 .409.394.497.716.497.284 0 .62-.066.884-.175l.043.533a3.2 3.2 0 0 1-.986.161c-.636 0-1.381-.286-1.381-1.038C-2.521.512-.724.782-.724-.043c0-.38-.343-.548-.738-.548-.343 0-.708.08-1.015.241l-.044-.584a3.4 3.4 0 0 1 1.118-.176C-.724-1.11 0-.767 0 0" style="fill:#000;fill-opacity:1;fill-rule:nonzero;stroke:none" transform="matrix(8.5581 0 0 -8.5581 1032.34 276.426)"/></g><g style="fill:#000"><path d="M0 0c0 1.235-1.798 1.045-1.798 1.681 0 .409.395.497.716.497.285 0 .621-.066.885-.175l.043.533a3.2 3.2 0 0 1-.986.161c-.636 0-1.381-.286-1.381-1.038C-2.521.512-.724.782-.724-.043c0-.38-.343-.548-.738-.548-.343 0-.709.08-1.015.241l-.044-.584a3.4 3.4 0 0 1 1.118-.176C-.724-1.11 0-.767 0 0" style="fill:#000;fill-opacity:1;fill-rule:nonzero;stroke:none" transform="matrix(8.5581 0 0 -8.5581 1061.916 276.426)"/></g><g style="fill:#000"><path d="M0 0v.22c0 1.029-.438 1.87-1.527 1.87-1.015 0-1.651-.884-1.651-1.885 0-1.14.569-1.922 1.768-1.922.394 0 .855.059 1.22.197l-.044.57c-.292-.161-.731-.256-1.059-.256-.709 0-1.132.534-1.132 1.206zm-.701.453h-1.732c0 .467.292 1.132.913 1.132.622 0 .819-.613.819-1.132" style="fill:#000;fill-opacity:1;fill-rule:evenodd;stroke:none" transform="matrix(8.5581 0 0 -8.5581 1097.364 271.23)"/></g></svg>