<svg xmlns="http://www.w3.org/2000/svg" width="1023.22" height="279.32" viewBox="0 0 1023.22 279.32"><g fill="#004682" data-name="Gruppe 1"><path d="M0 55.68v71.71h76.95v-12.6h-63.2V96.37h42.09V83.78H13.75V68.27h60.51V55.68Z" data-name="Pfad 1"/><path d="M191.1 127.4h-20.47l-47.82-59.44v59.44h-13.75V56.14h20.47l47.83 59.46V56.14h13.74Z" data-name="Pfad 2"/><path d="M301.97 114.82h-62.01V96.45h41.31V83.87h-41.31V68.4h59.37V55.84h-73.11v71.55h75.75Z" data-name="Pfad 3"/><path d="M418.43 78.53c0-6.9-2.23-12.41-6.65-16.52s-10.38-6.17-17.84-6.17h-56.86v71.55h13.73V101.1h34.95l18.41 26.29h15.74l-18.99-27.11q17.52-3.945 17.51-21.76m-14.08.24q0 9.78-12.47 9.78h-41.07V68.41h40.28q13.245 0 13.26 10.35" data-name="Pfad 4"/></g><g fill="#004682" data-name="Gruppe 2"><path d="M959.3.12 845.5.1l79.03 122.26 98.69-37.63Z" data-name="Pfad 5"/><path d="m655.71.06 23.85 41.37h-7.51L648.2.05 395.76 0l117.16 279.32 242.87-92.61-27.68-48.03h7.5l26.33 45.68 156.38-59.63L837.75.1Z" data-name="Pfad 6"/></g><g fill="#bcbcbc" data-name="Gruppe 3"><path d="M539.8 78.55q0-10.335-6.64-16.51t-17.85-6.17h-56.86v71.52h13.75v-26.28h40.83q12.945 0 19.86-5.88c4.62-3.91 6.91-9.47 6.91-16.69m-14.08.24q0 9.78-12.46 9.77h-41.07V68.43h40.26q13.26 0 13.26 10.35" data-name="Pfad 7"/><path d="m655.43 127.4-38.99-71.56h-17.33l-38.99 71.56h15.39l8.23-15.36h48.08l8.24 15.36Zm-30.59-27.93h-34.12l17.11-31.69Z" data-name="Pfad 8"/><path d="M835.9 55.84q25.17 0 40.55 18.47l-12.1 4.18q-10.875-10.785-27.59-10.78-14.385 0-22.97 6.63a20.77 20.77 0 0 0-8.57 17.17 21.16 21.16 0 0 0 8.57 17.43q8.58 6.6 23.19 6.58 16.965 0 27.6-10.99l11.33 6.05q-14.97 16.815-39.25 16.81-20.2 0-32.69-10.06t-12.49-25.78c0-10.48 4.73-19.81 14.19-26.71q12.3-9 30.24-9.01" data-name="Pfad 9"/><path d="M762.97 78.08c0-6.96-2.23-12.52-6.65-16.67s-10.37-6.23-17.85-6.23h-56.85v72.21h13.73v-26.53h34.94l18.43 26.53h15.73l-18.98-27.36q17.49-3.975 17.51-21.95m-14.09.23q0 9.87-12.48 9.87h-41.07V67.86h40.26c8.87 0 13.28 3.49 13.28 10.45" data-name="Pfad 10"/></g></svg>