<svg xmlns="http://www.w3.org/2000/svg" width="60" height="60" fill="none" viewBox="0 0 60 60"><g clip-path="url(#a)"><path fill="#fff" d="M46.569 0H13.43C6.013 0 0 6.013 0 13.431V46.57C0 53.987 6.013 60 13.431 60H46.57C53.987 60 60 53.987 60 46.569V13.43C60 6.013 53.987 0 46.569 0"/><mask id="b" width="34" height="56" x="13" y="2" maskUnits="userSpaceOnUse" style="mask-type:luminance"><path fill="#fff" d="M46.051 2.727h-32.1v54.546h32.1z"/></mask><g mask="url(#b)"><mask id="c" width="34" height="56" x="13" y="2" maskUnits="userSpaceOnUse" style="mask-type:luminance"><path fill="#fff" d="M46.051 2.727h-32.1v54.546h32.1z"/></mask><g mask="url(#c)"><mask id="d" width="34" height="56" x="13" y="2" maskUnits="userSpaceOnUse" style="mask-type:luminance"><path fill="#fff" d="M46.051 2.727h-32.1v54.546h32.1z"/></mask><g mask="url(#d)"><path fill="#0ffdd9" d="M38.859 37.66a8.83 8.83 0 0 0-8.827-8.83 8.83 8.83 0 0 0-8.83 8.827s-.289 5.54 3.63 11.353c2.943 4.367 3.654 5.566 3.893 6.265 0 0 .474-1.044 1.187-3.477.588-2.013 1.756 2.82 1.376 4.901 0 0 7.646-7.228 7.573-19.042"/><path fill="#0ffdd9" d="M30.124 16.492c8.41 7.523 10.287 13.42 10.287 13.42l.128-.053 1.28-14.742C41.818 8.59 36.527 3.352 30 3.35c-6.527 0-11.817 5.289-11.82 11.816v.003l1.281 14.737s3.275-10.305 20.58-21.03"/><path fill="#40328b" d="M34.77 26.067a.428.428 0 0 1-.854 0 .428.428 0 0 1 .854 0"/><path fill="#40328b" d="M34.343 26.921a.853.853 0 1 1-.001-1.707.853.853 0 0 1 0 1.707M26.084 26.067a.428.428 0 0 1-.854 0 .428.428 0 0 1 .854 0"/><path fill="#40328b" d="M25.657 26.921a.853.853 0 1 1-.001-1.707.853.853 0 0 1 .001 1.707"/><g opacity=".4"><mask id="e" width="10" height="27" x="29" y="30" maskUnits="userSpaceOnUse" style="mask-type:luminance"><path fill="#fff" d="M38.895 30.213H29.91v25.926h8.985z"/></mask><g mask="url(#e)"><path fill="#40328b" d="M34.371 30.213s.064.084.188.282c2.348 3.532 1.977 6.263 1.712 10.597-.376 6.156-5.83 10.286-6.192 10.64l-.177.067 1.424 4.338s4.45-3.886 6.075-9.68c0 0 4.875-13.354-3.037-16.246"/></g></g><g opacity=".4"><mask id="f" width="6" height="25" x="36" y="5" maskUnits="userSpaceOnUse" style="mask-type:luminance"><path fill="#fff" d="M41.64 5.699h-5.202v23.665h5.203z"/></mask><g mask="url(#f)"><path fill="#40328b" d="M36.438 23.218s3.743-9.677.282-17.52c0 0 4.24 1.906 4.804 7.417s-1.128 16.247-1.128 16.247z"/></g></g><path fill="#40328b" d="M40.41 30.482a.56.56 0 0 1-.535-.388c-.02-.058-1.923-5.77-9.928-12.993a49.2 49.2 0 0 0-6.184 6.598c-2.912 3.809-3.75 6.36-3.762 6.384a.575.575 0 0 1-.605.393.564.564 0 0 1-.505-.517L17.614 15.22c-.014-6.767 5.394-12.297 12.16-12.436h.225c4.266 0 8.23 2.142 10.495 5.757l.029.041q.014.02.024.042a12.3 12.3 0 0 1 1.842 6.494l-1.283 14.788a.56.56 0 0 1-.354.478l-.128.052a.6.6 0 0 1-.212.046M30.8 16.334c5.509 4.988 8.166 9.227 9.34 11.539l1.113-12.805c0-1.89-.481-3.747-1.401-5.398a73 73 0 0 0-9.053 6.664M30.217 3.92H30c-6.21.005-11.246 5.04-11.251 11.251l1.089 12.478c1.834-3.538 6.897-11.082 19.41-18.952-2.063-2.962-5.42-4.708-9.03-4.777"/><path fill="#40328b" d="M40.8 23.082a.56.56 0 0 1-.436-.203 52 52 0 0 0-5.1-5.21.568.568 0 0 1 .753-.85 53 53 0 0 1 5.21 5.325.565.565 0 0 1-.434.94h.007zM18.94 23.772a.563.563 0 0 1-.526-.79v-.01c.07-.159 1.764-3.95 6.31-9.121a.569.569 0 1 1 .856.752c-4.418 5.03-6.107 8.791-6.124 8.829a.57.57 0 0 1-.515.34"/><path fill="#fff" d="M31.975 12.414c0 2.106-1.802 3.814-1.802 3.814s-1.802-1.708-1.802-3.814c0-2.107.807-3.815 1.802-3.815s1.802 1.704 1.802 3.815"/><path fill="#40328b" d="M30.171 16.794a.56.56 0 0 1-.393-.156c-.08-.077-1.979-1.903-1.979-4.226 0-2.5 1.02-4.384 2.372-4.384s2.368 1.884 2.368 4.386c0 2.325-1.898 4.15-1.979 4.226a.56.56 0 0 1-.389.154m0-7.628c-.49 0-1.232 1.294-1.232 3.244 0 1.249.753 2.372 1.232 2.962.487-.588 1.24-1.711 1.24-2.958 0-1.954-.753-3.248-1.24-3.248M31.287 57.273a.564.564 0 0 1-.574-.553c0-.04 0-.08.01-.119.208-1.143-.102-3.086-.424-4.126a28 28 0 0 1-1.06 3.04.58.58 0 0 1-.548.332.56.56 0 0 1-.512-.386c-.207-.607-.855-1.722-3.825-6.131-3.98-5.904-3.74-11.474-3.728-11.7.186-5.19 4.546-9.246 9.737-9.06a9.404 9.404 0 0 1 9.06 9.087c.074 11.923-7.431 19.157-7.749 19.46a.56.56 0 0 1-.387.156m-1.052-6.523q.088 0 .173.02c.9.213 1.396 2.596 1.49 4.417 2.035-2.42 6.444-8.694 6.395-17.52a8.26 8.26 0 0 0-8.385-8.135 8.26 8.26 0 0 0-8.135 8.134c0 .083-.224 5.455 3.532 11.034 1.859 2.757 2.822 4.25 3.354 5.163.188-.54.429-1.274.705-2.216.218-.752.61-.897.873-.897z"/><path fill="#40328b" d="M38.897 38.494c-5.194 0-9.405-4.211-9.405-9.404 0-.314.256-.495.57-.495s.57.18.57.495a8.262 8.262 0 0 0 14.424 5.518.564.564 0 0 1 .8-.047.566.566 0 0 1 .049.8 9.42 9.42 0 0 1-7.008 3.133"/><path fill="#40328b" d="M21.103 38.494a9.42 9.42 0 0 1-7.008-3.133.568.568 0 0 1 .849-.753 8.262 8.262 0 0 0 14.418-5.503c0-.314.256-.495.57-.495s.57.18.57.495c-.007 5.185-4.213 9.385-9.399 9.39"/><path fill="#0ffdd9" d="M30.346 48.226s4.379-2.684 4.238-8.336Z"/><path fill="#40328b" d="M30.346 48.796a.564.564 0 0 1-.299-1.056 9.15 9.15 0 0 0 3.965-7.837.564.564 0 0 1 .545-.583h.034c.312 0 .565.252.565.564a10.3 10.3 0 0 1-4.515 8.84.56.56 0 0 1-.295.072"/><path fill="#0ffdd9" d="M29.639 43.405a6.21 6.21 0 0 0 2.684-5.282Z"/><path fill="#40328b" d="M29.639 43.975a.563.563 0 0 1-.3-1.053 5.6 5.6 0 0 0 2.416-4.782.564.564 0 0 1 .545-.583h.034c.312 0 .564.252.564.565a6.74 6.74 0 0 1-2.956 5.782.55.55 0 0 1-.303.07"/></g></g></g></g><defs><clipPath id="a"><rect width="60" height="60" fill="#fff" rx="12"/></clipPath></defs></svg>