<svg xmlns="http://www.w3.org/2000/svg" width="541" height="203"><path fill="#0f62fe" d="M529.894 191.853c.856 0 1.336-.377 1.336-1.18v-.805c0-.803-.48-1.18-1.336-1.18h-2.027v3.165zm-2.027 5.898h-2.726v-11.206h5.076c2.51 0 3.791 1.5 3.791 3.54 0 1.768-.8 2.894-2.03 3.376l2.51 4.29H531.5l-2.083-3.864h-1.55zm9.775-4.987v-1.394c0-4.504-3.528-8.042-8.176-8.042s-8.172 3.538-8.172 8.042v1.394c0 4.502 3.525 8.042 8.172 8.042s8.176-3.54 8.176-8.042m-18.86-.7c0-6.269 4.757-11.041 10.684-11.041 5.931 0 10.69 4.772 10.69 11.041 0 6.275-4.759 11.048-10.69 11.048-5.927 0-10.683-4.773-10.683-11.048M364.858 14.927 359.989.89h-80.125v14.037zm9.288 26.802-4.867-14.04h-89.414v14.04zm59.614 160.81h69.95V188.5h-69.95zm0-26.805h69.95v-14.037h-69.95zm0-26.8h41.97v-14.04h-41.97zm0-26.801h41.97v-14.038h-41.97zm0-26.8h41.97v-14.04H395.72l-3.935 11.346-3.931-11.346h-80.01v14.04h41.972V82.433l4.514 12.902h74.914l4.514-12.902zm41.97-40.839h-70.72l-4.867 14.034h75.586zm-167.885 67.639h41.973v-14.038h-41.973zm0 26.802h41.973v-14.04h-41.973zm-27.98 26.799h69.95v-14.037h-69.95zm0 26.805h69.95V188.5h-69.95zM423.584.89l-4.865 14.038h84.99V.89zM409.43 41.73h94.279V27.69h-89.414zm-101.586 26.8h75.59l-4.868-14.035h-70.722zm55.86 53.604h56.165l4.911-14.038h-65.988zm9.378 26.802h37.409l4.91-14.04h-47.23zm9.375 26.799h18.658l4.911-14.034h-28.48zm9.307 26.805 4.884-14.04h-9.723zm-279.784-.14 103.021.14c13.99 0 26.536-5.32 36.036-14.04H111.98zm109.38-67.505v14.04h47.057c0-4.859-.663-9.56-1.87-14.04zm-81.4 14.04h41.97v-14.04h-41.97zm81.4-80.406h45.188a53.9 53.9 0 0 0 1.87-14.034H221.36zm-81.4 0h41.97V54.491h-41.97zM215.002.89H111.98v14.037h139.057C241.537 6.21 228.887.89 215 .89m46.254 26.799H111.98v14.04h154.903a53.7 53.7 0 0 0-5.628-14.04M139.961 81.293v14.04h109.606a53.9 53.9 0 0 0 11.673-14.04zm109.606 26.802H139.961v14.038H261.24a53.8 53.8 0 0 0-11.673-14.038M111.98 175.734h149.275a53.5 53.5 0 0 0 5.628-14.034H111.98zM.057 14.927h97.934V.89H.057zm0 26.802h97.934V27.69H.057zm27.984 26.802h41.97V54.494H28.04zm0 26.803h41.97v-14.04H28.04zm0 26.799h41.97v-14.038H28.04zm0 26.802h41.97v-14.04H28.04zM.057 175.734h97.934v-14.037H.057zm0 26.805h97.934V188.5H.057z"/></svg>