<svg xmlns="http://www.w3.org/2000/svg" xml:space="preserve" width="300" height="97.122" viewBox="0 0 300 97.122"><defs><clipPath id="a"><path d="M18.068 656.52h28.048v99.039H18.068z"/></clipPath></defs><path fill="#e30613" d="M.003-.022v97.124h300.004V-.022z"/><g clip-path="url(#a)" transform="matrix(0 2.6846 2.6846 0 -1745.398 -38.409)"><g fill="#fff"><path d="m36.269 669.922-8.223 7.955v-8.962l4.833-4.096 1.409-1.141.101-.201H19.093v-6.949h26.373v6.949h-6.847l.1.201 6.747 5.538v9.131zM45.466 714.94l-6.747-5.539-.101-.201h6.848v-6.948H19.092v6.948h15.297l-.101.201-1.409 1.141-4.834 4.096v8.962l8.224-7.956 9.197 8.426zm.504-18.552c0-5.338-3.592-9.567-9.064-9.567-5.437 0-9.364 4.129-9.364 9.499 0 1.544.336 3.122.973 4.498h5.841c-.705-.906-1.31-1.98-1.31-3.155 0-2.115 1.578-3.726 3.693-3.726s3.692 1.578 3.692 3.726c0 1.122-.669 2.419-1.266 3.143-.003.004 5.843.006 5.845.005-.003.002.96-1.941.96-4.423m-17.925-10.82h17.421v-6.948H28.045z"/><path d="M22.763 686.02a3.933 3.933 0 1 0 0-7.867 3.933 3.933 0 0 0 0 7.867m11.123 66.928c0-3.021 1.947-3.961 4.666-3.961h6.914v-6.948H28.045v6.948l2.685-.067v.134c-3.323 1.84-2.984 5.411-2.984 6.513.005-.002 6.845-.001 6.845-.001-.504-.873-.705-1.611-.705-2.618m-2.115-21.752c0-1.644.973-2.852 2.585-3.087v6.075c-1.511-.201-2.585-1.477-2.585-2.988m6.142-3.154c2.149 0 3.592.939 3.592 3.256 0 1.174-.503 2.013-1.543 2.516v6.714c4.128-1.041 6.008-5.203 6.008-9.164 0-5.672-3.088-10.238-9.097-10.238-5.807 0-9.331 4.129-9.331 9.768 0 5.942 3.683 9.936 9.557 9.936.127 0 .818-.008.814-.012z"/></g></g></svg>