<svg xmlns="http://www.w3.org/2000/svg" viewBox="0 0 108 43.08"><g stroke-width=".425"><path fill="#009" fill-rule="evenodd" d="M.012.006v26.16h4.353V.006zm13.04 0-1.695 10.178h4.354L17.387.006zm8.677 0v26.16h4.353V.006zM10.627 14.543 8.699 26.166h4.353l1.928-11.623z" clip-rule="evenodd"/><path fill="#575756" d="M19.697 35.74c-1.723 0-2.773.907-2.773 2.559v2.222c0 1.641 1.05 2.559 2.752 2.559 1.722 0 2.773-.918 2.773-2.559V38.3c0-1.652-1.05-2.559-2.752-2.559m13.637 0c-1.61 0-2.527.693-2.527 2.008 0 1.07.662 1.682 1.773 1.896l1.356.256v-.002c.683.133 1.11.5 1.11 1.162 0 .866-.61 1.286-1.722 1.286-1.1 0-1.732-.48-1.732-1.418v-.09h-.846v.09c0 1.427.968 2.152 2.578 2.152 1.621 0 2.59-.694 2.59-2.07 0-1.07-.644-1.671-1.785-1.885l-1.344-.256c-.683-.133-1.111-.51-1.111-1.172 0-.806.559-1.225 1.66-1.225s1.693.48 1.693 1.418v.092h.834v-.092c0-1.437-.917-2.15-2.527-2.15m6.81 0c-1.702 0-2.751.907-2.751 2.559v2.222c0 1.641 1.048 2.559 2.74 2.559 1.651 0 2.681-.856 2.681-2.365v-.032h-.845v.032c0 1.03-.695 1.63-1.836 1.63-1.183 0-1.895-.662-1.895-1.824v-2.22c0-1.162.713-1.827 1.906-1.827 1.132 0 1.825.602 1.825 1.622v.04h.845v-.04c0-1.51-1.029-2.356-2.67-2.356m23.808 0c-1.702 0-2.754.907-2.754 2.559v2.222c0 1.641 1.052 2.559 2.744 2.559 1.651 0 2.68-.856 2.68-2.365v-.032h-.846v.032c0 1.03-.693 1.63-1.834 1.63-1.183 0-1.897-.662-1.897-1.824v-2.22c0-1.162.713-1.827 1.906-1.827 1.132 0 1.825.602 1.825 1.622v.04h.845v-.04c0-1.51-1.028-2.356-2.67-2.356zm6.767 0c-1.723 0-2.771.907-2.771 2.559v2.222c0 1.641 1.048 2.559 2.752 2.559 1.722 0 2.771-.918 2.771-2.559V38.3c0-1.652-1.049-2.559-2.752-2.559m-26.264.102v7.136h.846v-3.21h3.629v3.21h.845v-7.136h-.845v3.191H45.3v-3.191zm30.707 0v7.136h.846v-5.474l2.223 4.17 2.232-4.17h.002v5.474h.834v-7.136h-.815l-2.254 4.22-2.252-4.22zm15.453 0-2.64 7.136h.833l.674-1.836h3.211l.674 1.836h.906l-2.629-7.136zm11.236 0 2.662 4.404v2.732h.836v-2.732l2.65-4.404h-.958l-2.1 3.558-2.08-3.558zm-99.21.002L0 42.978h.835l.674-1.836H4.72l.672 1.836H6.3l-2.63-7.134zm8.228 0v7.134h.845v-2.7h1.834c1.387 0 2.286-.685 2.286-2.224 0-1.53-.9-2.21-2.286-2.21zm13.27 0v7.134h.846v-2.7h2.07l1.274 2.7h.979l-1.387-2.834c.836-.265 1.336-.938 1.336-2.09 0-1.53-.897-2.21-2.283-2.21zm27.43 0v7.134h4.608v-.734h-3.762v-2.477h3.254v-.734h-3.254v-2.455h3.762v-.735zm31.526 0v7.134h.845v-2.7h1.836c1.387 0 2.283-.685 2.283-2.224 0-1.53-.897-2.21-2.283-2.21zm12.31 0v7.134h.846v-5.595l3.68 5.595h.795v-7.134h-.846v5.585l-3.68-5.585zm-75.708.63c1.192 0 1.906.663 1.906 1.825v2.222c0 1.162-.715 1.824-1.928 1.824-1.192 0-1.906-.662-1.906-1.824V38.3c0-1.163.714-1.825 1.928-1.825m51.02 0c1.193 0 1.907.663 1.907 1.825v2.222c0 1.162-.713 1.824-1.926 1.824-1.193 0-1.906-.662-1.906-1.824V38.3c0-1.163.713-1.825 1.926-1.825m-59.003.104h1.814c.867 0 1.438.436 1.438 1.476 0 1.05-.562 1.489-1.438 1.489h-1.814zm13.27 0h1.967c.867 0 1.438.436 1.438 1.476 0 1.05-.561 1.489-1.438 1.489h-1.966zm58.956 0h1.814c.867 0 1.438.436 1.438 1.476 0 1.05-.561 1.489-1.438 1.489H83.94zm-80.832.16 1.375 3.672H1.73zm87.975 0 1.375 3.672h-2.752zM68.328 15.328v10.835H63.88V0h4.448v11.478h11.286V0h4.448v26.163h-4.448V15.328M89.036.001h10.315c5.233 0 8.634 2.058 8.634 7.708 0 5.228-3.364 7.63-8.634 7.63h-5.867v10.824h-4.448zm4.448 11.488h5.718c3.046 0 4.223-1.225 4.223-3.78 0-2.764-1.23-3.78-4.223-3.78l-5.718-.009zM54.489 8.237l-7.137 11.371-7.14-11.37v17.925h-4.449V0h4.096l7.491 11.921L54.816.001h4.119v26.162h-4.447z"/></g></svg>