<svg xmlns="http://www.w3.org/2000/svg" xmlns:xlink="http://www.w3.org/1999/xlink" width="190" height="40" viewBox="0 0 190 40"><title>STROEER-white-cmyk</title><defs><path id="a" d="M0 0h38.065v40H0z"/></defs><g fill="none" fill-rule="evenodd"><g transform="translate(91.452)"><mask id="b" fill="#fff"><use xlink:href="#a"/></mask><path fill="#000" d="m10.892 0-2.22 5.758-.523.314A17.88 17.88 0 0 0 .547 17.004 21 21 0 0 0 0 21.684c0 7.961 4.372 14.365 11.881 17.05a22.5 22.5 0 0 0 7.581 1.295c10.803 0 18.603-7.7 18.603-18.496 0-2.296-.349-4.139-.547-4.928-1.49-5.71-5.613-9.038-7.252-10.131l-1.206-.762L31.26 0h-8.53l-1.271 3.295a21 21 0 0 0-2.6-.107l-.66.003L19.422 0zm5.214 15.126a6.4 6.4 0 0 1 2.899-.685c2.851-.053 5.169 1.634 6.167 4.26.218.49.526 1.48.526 2.933 0 4.077-2.515 5.973-3.894 6.61-.543.271-1.44.583-2.847.583-4.077 0-6.538-3.294-6.59-7.09 0-3.968 2.359-5.92 3.739-6.61" mask="url(#b)"/></g><path fill="#000" d="M172.462 4H158v35.075h11.659V25.114l7.064 13.96h13.168l-8.553-14.15c1.194-.434 2.074-.772 3.132-1.495 1.557-1.12 3.617-3.31 3.617-7.847 0-3.603-1.38-5.715-2.264-6.845-2.504-3.289-6.15-4.387-10.2-4.637-1.054-.1-2.11-.1-3.161-.1m-2.803 15.646v-6.563h1.995c2.098 0 4.318.411 4.318 3.206 0 .974-.326 1.632-.551 1.97-.901 1.352-2.424 1.387-3.716 1.387zM74.255 4.186H59.79v35.075h11.66v-13.96l7.065 13.96h13.168l-8.554-14.15c1.193-.434 2.074-.772 3.132-1.495 1.558-1.12 3.617-3.31 3.617-7.848 0-3.602-1.38-5.715-2.264-6.845-2.504-3.289-6.149-4.386-10.2-4.637-1.053-.1-2.109-.1-3.16-.1m-2.803 15.646v-6.563h1.995c2.098 0 4.317.412 4.317 3.206 0 .974-.325 1.632-.55 1.97-.902 1.352-2.426 1.387-3.716 1.387zM30.294 4.186V14.33h7.068V39.26h12.57V14.33h7.118V4.186zM132 39.075h23.726v-9.386H143.56v-3.888h10.904V16.87H143.56v-3.485h11.814V4H132zM24.98 4.84c-2.762-1.084-5.993-1.805-8.979-1.805-5.344 0-10.72 2.046-13.18 7.062-.443.888-1.284 2.813-1.284 5.53 0 6.172 4.534 8.275 6.627 9.023 1.403.45 3.71.95 5.213 1.2l.822.175c1.005.247 1.98.732 1.98 1.967 0 1.344-1.381 2.449-3.661 2.449-3.16 0-6.2-2.02-8.612-3.69L0 35.991c4.657 2.436 8.909 3.886 14.285 3.886 4.19 0 7.55-.944 10.668-3.714 3.609-3.311 4.048-6.956 4.048-8.877 0-2.373-.633-7.018-6.434-9.279-1.505-.552-4.109-1.151-5.664-1.502l-.85-.172c-.988-.23-2.047-.686-2.047-1.918 0-1.366 1.216-2.044 3.203-2.095 2.802 0 5.118 1.3 7.391 2.65l3.564-8.693c-.784-.376-1.837-.91-3.183-1.438"/></g></svg>