<svg xmlns="http://www.w3.org/2000/svg" width="210" height="45" fill="none"><path fill="#171B26" d="M0 19.407v-5.555h4.706v-1.926l5.969-7.954h2.905v9.88h5.717v5.555H13.58v14.077q0 2.715.569 3.567.6.852 2.463.852 1.043 0 2.369-.442v6.345a26.3 26.3 0 0 1-5.338.568q-1.546 0-2.937-.221-4.074-.663-5.274-3.851a10.5 10.5 0 0 1-.6-2.525q-.126-1.23-.126-4.608V19.407zm32.105 5.42v5.32h-11.86v-5.32zm18.932-11.891q3.157 0 5.685.915 4.989 1.832 7.453 6.408 1.895 3.536 1.895 8.648 0 7.292-4.485 11.647-4.074 3.946-10.58 3.946-6.916 0-11.054-4.419-4.074-4.324-4.074-11.395 0-6.912 3.948-11.141 4.294-4.61 11.212-4.609m-.38 6.218q-1.358 0-2.4.663-3.505 2.178-3.505 8.87 0 2.177.41 4.166.538 2.493 2.053 3.977 1.516 1.452 3.537 1.452 1.264 0 2.337-.6 3.57-1.989 3.57-8.87 0-2.114-.38-4.008-.505-2.588-2.053-4.103-1.516-1.547-3.568-1.547m19.454 24.431V13.852h8.938v2.746q3.126-3.662 8.275-3.662 5.968 0 8.716 3.977 1.706 2.463 1.706 7.702v18.97h-8.875V26.004q0-3.094-.695-4.356-1.105-1.989-3.632-1.989-3.284 0-4.769 3.188-.79 1.641-.79 6.092v14.646zm33.146 0V.5h8.874v43.085zm14.644-34.468V.5h9.411v8.617zm.252 34.468V13.852h8.875v29.733zm14.734 0V13.852h8.937v2.746q3.127-3.662 8.275-3.662 5.969 0 8.716 3.977 1.706 2.463 1.706 7.702v18.97h-8.875V26.004q0-3.094-.695-4.356-1.105-1.989-3.631-1.989-3.285 0-4.769 3.188-.79 1.641-.79 6.092v14.646zm60.795-12.721h-19.77q.379 7.67 5.59 7.67 3.19 0 4.516-3.156h8.906q-.631 2.367-2.337 4.419-3.853 4.703-10.959 4.703-6.79 0-10.833-4.072-4.263-4.324-4.263-11.552 0-6.692 3.884-11.142 4.17-4.798 10.833-4.798 5.306 0 9.001 3.188 2.685 2.336 3.979 5.84 1.296 3.471 1.453 8.9m-9.38-5.302q-.189-2.052-.789-3.472-1.359-3.22-4.327-3.22-1.422 0-2.495.82-2.337 1.705-2.748 5.872z"/><path fill="#E20074" d="M198.391 32.811h10.78v10.774h-10.78z"/></svg>